<?xml version="1.0" encoding="utf-8"?>
<!-- Generator: Adobe Illustrator 25.0.1, SVG Export Plug-In . SVG Version: 6.00 Build 0)  -->
<svg version="1.0" id="Layer_1" xmlns="http://www.w3.org/2000/svg" xmlns:xlink="http://www.w3.org/1999/xlink" x="0px" y="0px"
	 viewBox="0 0 262.1 178" style="enable-background:new 0 0 262.1 178;" xml:space="preserve">
<style type="text/css">
	.st0{fill:#0079C1;}
</style>
<g>
	<path class="st0" d="M133.7,105v-9.9c-0.1,0-0.1-0.1-0.2-0.1l-3.8,0.5v1l1.6,0.4v7c-0.5,0.3-1,0.5-1.5,0.7s-1,0.3-1.3,0.3
		c-0.7,0-1.1-0.2-1.4-0.5c-0.3-0.4-0.4-0.9-0.4-1.7c0-1.3,0-2.6,0-3.8c0-1.3,0-2.5,0-3.8l-0.2-0.1l-3.8,0.5v1
		c0.3,0.1,0.5,0.2,0.8,0.2c0.3,0.1,0.5,0.1,0.8,0.2v6.8c0,1.2,0.3,2,0.8,2.5c0.6,0.5,1.3,0.7,2.3,0.7c0.3,0,0.7,0,1.1-0.1
		c0.4,0,0.8-0.1,1.2-0.2c0.6-0.5,1.1-1,1.7-1.6l0,0l0.5,1.7l0.2,0.1l3.4-0.5v-1c-0.3-0.1-0.6-0.1-0.9-0.2
		C134.2,105.2,133.9,105.1,133.7,105 M148.2,98.2c0-1.1-0.3-1.9-0.8-2.4s-1.3-0.7-2.3-0.7c-0.4,0-0.7,0-1.2,0.1
		c-0.4,0-0.8,0.1-1.2,0.2l-1.6,1.6l0,0l0,0l-0.5-1.7l-0.2-0.1c-0.5,0.1-1.1,0.2-1.6,0.3c-0.5,0.1-1.1,0.2-1.6,0.3v1l1.6,0.4v8.1
		l-1.7,0.6v1h5.7v-1l-1.6-0.5c0-1.5,0-2.8,0-3.9V98c0.5-0.3,1-0.5,1.5-0.7s0.9-0.2,1.4-0.2c0.7,0,1.2,0.2,1.4,0.5
		c0.3,0.3,0.4,0.9,0.4,1.6v5.8l-1.6,0.6v1h5.6v-1l-1.6-0.5L148.2,98.2L148.2,98.2z M153.2,90.6c-0.3,0.3-0.5,0.7-0.5,1.1
		c0,0.5,0.1,0.8,0.4,1.2c0.3,0.3,0.7,0.5,1.2,0.5s0.9-0.2,1.2-0.5s0.5-0.7,0.5-1.2c0-0.4-0.2-0.8-0.5-1.1c-0.3-0.3-0.7-0.5-1.2-0.5
		C153.9,90.2,153.6,90.3,153.2,90.6 M155.7,100.1c0-1.7,0-3.3,0-5l-0.2-0.1l-3.8,0.6v1c0.3,0.1,0.5,0.2,0.8,0.2
		c0.3,0.1,0.5,0.1,0.8,0.2v8l-1.8,0.7c0,0.3,0,0.6,0,1h5.9c0-0.2,0-0.3,0-0.5s0-0.3,0-0.5l-1.8-0.6
		C155.7,103.5,155.7,101.8,155.7,100.1 M169,95.2h-1.3c-0.5,0-0.9,0-1.3,0c-0.4,0-0.7,0-0.8,0v1l1.4,0.5c0,0.1-0.1,0.3-0.3,0.7
		c-0.1,0.3-0.3,0.8-0.4,1.2c-0.2,0.5-0.3,1-0.5,1.5l-0.5,1.5c-0.2,0.5-0.3,0.9-0.4,1.2c-0.1,0.2-0.1,0.4-0.2,0.6h-0.1l-2.2-5.9
		c-0.2-0.4-0.3-0.9-0.4-1.4c-0.1-0.4-0.2-0.8-0.2-1.3l-3.9,0.2v1l1.2,0.4c0.4,1,0.8,1.9,1.2,2.9c0.3,0.7,0.6,1.4,0.9,2.2
		c0.3,0.8,0.6,1.5,0.9,2.2c0.3,0.7,0.5,1.3,0.8,1.8c0.2,0.5,0.4,0.9,0.4,1l1.4-0.3l3-7.1c0.3-0.7,0.6-1.4,1-2
		c0.3-0.6,0.7-1.1,1.2-1.5l-0.1-1C169.6,95.2,169.4,95.2,169,95.2 M179.6,96.8c-0.4-0.5-0.8-0.9-1.4-1.2c-0.6-0.3-1.4-0.5-2.4-0.5
		c-1.1,0-2,0.2-2.7,0.5c-0.7,0.4-1.3,0.8-1.7,1.4s-0.7,1.2-0.9,1.9c-0.2,0.7-0.3,1.5-0.2,2.2c0,0.9,0.1,1.7,0.3,2.5
		c0.2,0.7,0.5,1.3,0.9,1.8s1,0.9,1.7,1.2c0.7,0.3,1.5,0.4,2.5,0.4c0.8,0,1.6-0.1,2.4-0.4c0.8-0.2,1.4-0.6,2-1l-0.4-1.2
		c-0.6,0.3-1.2,0.4-1.8,0.5s-1,0.2-1.4,0.2c-0.7,0-1.2-0.1-1.7-0.3c-0.4-0.2-0.8-0.4-1.1-0.8s-0.5-0.8-0.6-1.3s-0.2-1.1-0.2-1.8
		l7.4-0.4l0.2-0.3c0-0.6-0.1-1.2-0.2-1.8C180.2,97.9,180,97.3,179.6,96.8z M173,99.8c0-0.3,0-0.7,0.1-1c0.1-0.4,0.2-0.7,0.4-1
		s0.5-0.6,0.8-0.8c0.3-0.2,0.7-0.3,1.3-0.3c0.5,0,0.8,0.1,1.1,0.2c0.3,0.2,0.5,0.4,0.6,0.6c0.2,0.3,0.3,0.5,0.3,0.9
		c0.1,0.3,0.1,0.6,0.1,0.9L173,99.8z M190.6,94.9c-0.4,0-0.7,0.1-1.1,0.2c-0.4,0.1-0.7,0.3-1,0.5s-0.6,0.4-0.9,0.6
		c-0.3,0.2-0.5,0.5-0.8,0.7l0,0l-0.4-1.6l-0.2-0.1l-3.4,0.5v1l1.6,0.4v8.1l-1.8,0.7v1h5.9v-1l-1.8-0.5v-7.5l3.7,0.3
		c0.2-0.3,0.4-0.7,0.6-1.1c0.1-0.4,0.2-0.8,0.2-1.2c0-0.3-0.1-0.5-0.2-0.7C190.9,94.9,190.8,94.9,190.6,94.9 M200,101.3
		c-0.3-0.3-0.7-0.5-1.1-0.7c-0.5-0.2-1-0.5-1.4-0.7s-0.8-0.3-1.2-0.5c-0.3-0.1-0.6-0.3-0.8-0.4s-0.4-0.3-0.5-0.5s-0.2-0.4-0.1-0.6
		c0-0.4,0.2-0.8,0.5-1s0.7-0.3,1.2-0.3c0.3,0,0.6,0,0.9,0.1c0.4,0.1,0.7,0.2,1.1,0.4l0.8,1.9l0.9-0.1c0-0.5,0-1,0-1.5s0-1,0-1.5
		c-0.6-0.3-1.2-0.5-1.9-0.6c-0.6-0.1-1.2-0.2-1.8-0.2c-0.8,0-1.4,0.1-2,0.3c-0.5,0.2-1,0.4-1.3,0.7c-0.3,0.3-0.6,0.6-0.7,1
		c-0.2,0.4-0.2,0.8-0.2,1.2c0,0.5,0.1,0.9,0.3,1.3c0.2,0.3,0.5,0.7,0.8,0.9c0.3,0.3,0.7,0.5,1.2,0.7l1.3,0.6
		c0.3,0.2,0.6,0.3,0.9,0.4c0.3,0.1,0.5,0.3,0.8,0.4c0.2,0.2,0.4,0.3,0.5,0.5s0.2,0.5,0.2,0.8c0,0.5-0.2,0.9-0.6,1.2
		c-0.4,0.2-1,0.4-1.7,0.4c-0.3,0-0.7-0.1-1.1-0.2c-0.4-0.1-0.8-0.3-1.1-0.5l-1-2.1c-0.1,0-0.3,0.1-0.4,0.1c-0.1,0-0.3,0.1-0.4,0.1
		l0.2,3.3c0.4,0.3,1,0.5,1.7,0.6s1.4,0.2,2.1,0.2c0.8,0,1.6-0.1,2.2-0.3c0.6-0.2,1.1-0.4,1.5-0.7c0.4-0.3,0.7-0.7,0.9-1.1
		s0.3-0.9,0.3-1.4s-0.1-0.9-0.2-1.3C200.5,101.9,200.3,101.5,200,101.3 M205.5,93.4c0.5,0,0.9-0.2,1.2-0.5s0.5-0.7,0.5-1.2
		c0-0.4-0.2-0.8-0.5-1.1c-0.3-0.3-0.7-0.5-1.2-0.5c-0.4,0-0.8,0.2-1.1,0.5s-0.5,0.7-0.5,1.1c0,0.5,0.1,0.8,0.4,1.2
		C204.6,93.2,205,93.4,205.5,93.4 M206.8,100.1c0-1.7,0-3.3,0-5l-0.2-0.1l-3.8,0.6v1c0.3,0.1,0.5,0.2,0.8,0.2
		c0.3,0.1,0.5,0.1,0.8,0.2v8l-1.8,0.7c0,0.2,0,0.3,0,0.5c0,0.1,0,0.3,0,0.5h5.9c0-0.2,0-0.3,0-0.5s0-0.3,0-0.5l-1.8-0.6
		C206.8,103.5,206.8,101.8,206.8,100.1 M217.3,104.8c-0.5,0.1-0.9,0.2-1.2,0.3c-0.3,0.1-0.6,0.1-1,0.1c-0.6,0-1-0.1-1.3-0.4
		c-0.2-0.3-0.4-0.7-0.4-1.3v-6.8h3.4v-1.3h-3.4v-2.9l-0.1-0.1l-0.1-0.1l-1.3,0.4l-0.8,2.5c-0.3,0.1-0.6,0.2-0.9,0.3
		c-0.3,0.1-0.6,0.2-0.9,0.3v0.9h1.6v6.9c0,0.6,0,1.1,0.1,1.5s0.3,0.8,0.5,1.1c0.2,0.3,0.5,0.5,0.9,0.6s0.9,0.2,1.5,0.2
		c1.2,0,2.4-0.3,3.6-0.9c-0.1-0.2-0.1-0.4-0.2-0.6C217.4,105.2,217.3,105,217.3,104.8 M230.3,95.7c0-0.2,0-0.3-0.1-0.5l-4.2,0.1
		c0,0.2,0,0.3,0,0.5s0,0.3,0,0.5l1.4,0.5c-0.4,1.3-0.9,2.5-1.3,3.8l-1.3,3.8h-0.1c-0.3-1.1-0.7-2.2-1.1-3.3
		c-0.4-1.1-0.8-2.2-1.1-3.3c-0.2-0.5-0.3-1-0.4-1.4c-0.1-0.5-0.2-0.9-0.2-1.3l-3.8,0.2v1l1.2,0.4l1.9,5c0.6,1.6,1.3,3.3,1.9,4.9
		l0.8,0.1l-0.6,1.5c-0.1,0.2-0.1,0.4-0.2,0.6c-0.1,0.2-0.2,0.4-0.4,0.6c-0.1,0.2-0.3,0.4-0.5,0.5s-0.4,0.2-0.6,0.3l-2-1.2
		c-0.3,0.1-0.5,0.3-0.7,0.6c-0.2,0.3-0.3,0.6-0.3,0.9c0,0.4,0.2,0.8,0.6,1.1c0.4,0.3,0.9,0.4,1.5,0.4c0.9,0,1.7-0.3,2.3-0.9
		s1.1-1.4,1.5-2.5l1.9-4.5c0.6-1.5,1.2-3,1.8-4.5c0.3-0.7,0.6-1.4,1-2c0.3-0.6,0.7-1.1,1.2-1.4C230.3,96.1,230.3,95.9,230.3,95.7
		 M152.5,80.6v-8.3l2.1-0.5l-0.1-1.4c0,0-0.9,0.1-2.1,0.1c-1.1,0-4-0.1-4-0.1l-0.1,1.3l1.9,0.6v7.3c0,0.6-0.1,1.2-0.2,1.7
		c-0.1,0.5-0.3,1-0.5,1.4c-0.3,0.4-0.6,0.7-1.1,0.9c-0.4,0.2-1,0.3-1.7,0.3s-1.3-0.1-1.8-0.3c-0.5-0.2-0.8-0.5-1.1-0.8
		c-0.2-0.4-0.4-0.8-0.5-1.2c-0.1-0.5-0.1-1-0.1-1.5v-7.7l2-0.5l-0.1-1.4c0,0-0.5,0.1-2.4,0.1c-1.9,0-4.8-0.1-4.8-0.1l-0.1,1.3l2,0.6
		V81c0,1.1,0.2,1.9,0.6,2.6c0.4,0.7,0.9,1.2,1.5,1.6c0.6,0.4,1.3,0.7,2,0.8c0.7,0.1,1.4,0.2,2,0.2c0.7,0,1.5-0.1,2.2-0.2
		s1.4-0.4,2.1-0.8c0.6-0.4,1.1-1,1.5-1.7C152.2,82.7,152.5,81.8,152.5,80.6 M159.5,85.8h1c0.1,0,0.4,0,0.7,0h1.1h1.1
		c0.3,0,0.5,0,0.6,0c1,0,1.9-0.1,2.6-0.4c0.7-0.3,1.4-0.6,1.9-1s1-0.9,1.3-1.5s0.6-1.1,0.8-1.7s0.3-1.1,0.4-1.7
		c0.1-0.5,0.1-1,0.1-1.5c0-0.9-0.1-1.8-0.4-2.8c-0.2-0.9-0.7-1.7-1.2-2.5c-0.6-0.7-1.4-1.3-2.3-1.8c-1-0.4-2.2-0.7-3.6-0.7
		c-0.3,0-0.5,0-0.8,0s-0.5,0-0.8,0s-0.6,0-0.9,0c-0.3,0-0.7,0-1.1,0h-0.8c-0.2,0-0.5,0-0.7,0s-0.5,0-0.8,0s-0.7,0-1,0l-0.2,1.4
		l1.8,0.5V84l-2,0.6l0.1,1.3c0.4,0,0.8,0,1.1,0h0.9C158.9,85.8,159.2,85.8,159.5,85.8L159.5,85.8z M161.7,72.6c0.2,0,0.3,0,0.5,0
		s0.4,0,0.6,0c0.6,0,1.2,0.1,1.8,0.2c0.6,0.2,1.1,0.4,1.5,0.8s0.8,1,1.1,1.7s0.4,1.6,0.4,2.7c0,0.8-0.1,1.5-0.2,2.2
		c-0.1,0.7-0.4,1.3-0.7,1.9c-0.3,0.5-0.8,1-1.3,1.3s-1.2,0.5-2,0.5c-0.3,0-0.5,0-0.9,0c-0.3,0-0.6-0.1-0.8-0.1L161.7,72.6
		L161.7,72.6z M172.2,84.5l0.1,1.3h6.4l0.1-1.4l-2.2-0.5l-0.1-9.6h0.1l3.2,4.3l5.7,7.6l1.7-0.4c0-0.3,0-0.7,0-1.4c0-0.7,0-1.5,0-2.4
		s0-1.9,0-2.9s0-2,0.1-2.9c0-0.9,0-1.7,0-2.4c0-0.7,0-1.2,0-1.4l2.3-0.5l-0.1-1.4h-6.3l-0.1,1.3l2.1,0.6l0.2,8.2h-0.1l-2.7-3.7
		l-3.8-5.1c-0.1-0.2-0.3-0.4-0.4-0.6c-0.2-0.3-0.3-0.5-0.4-0.8c-0.4,0-1.1,0-2,0.1c-1.1,0-2.2,0-3.3,0l-0.2,1.3l2.3,0.6l-0.3,11.5
		L172.2,84.5L172.2,84.5z M122.6,84.5l0.1,1.4c0,0,2.3-0.1,3.6-0.1c1.3,0,3.7,0.1,3.7,0.1l0.1-1.4l-2.2-0.5v-4.5
		c0.3,0.1,1,0.2,2,0.2l4.6,7l2.7-0.6l0.3-1l-4.7-6c1.7-0.7,3.4-2,2.9-5.2c-0.6-3.8-4.7-3.5-5.8-3.5c-1.2,0-4.1,0.5-6.7-0.1l-0.4,1.5
		c0,0,0.7,0.3,1.8,0.6V84L122.6,84.5z M132.2,75c0,1.5-0.9,3-4.3,2.4v-4.8c0.1,0,0.2,0,0.4,0C131.4,72.3,132.2,73.5,132.2,75z"/>
</g>
<path class="st0" d="M72.3,110.9c6-0.6,11.1-5.9,13.3-13.2c0.1-0.3-0.1-0.5-0.3-0.6c0,0,0,0-0.1,0c-4.1-0.6-8.5-1-13-1
	c-0.3,0-0.5,0.2-0.5,0.5l0,0v13.8C71.7,110.7,72,110.9,72.3,110.9 M77.9,69.2c4.1,2.5,7.3,7.4,8.9,13.3c0.1,0.2,0.3,0.3,0.5,0.3
	c5.9-1.1,11.1-2.9,15.2-5.1c0.2-0.1,0.3-0.4,0.2-0.6l-0.1-0.1c-1.3-1-2.6-1.8-4-2.6c-2.1-1.2-4.3-2.2-6.8-3v-3.3c0,0,0,0,0-0.1v-1.4
	c0-1.9,1.5-3.4,3.4-3.4h2.6l0,0l0,0c0.5,0,0.9-0.4,0.9-1V57c0-0.5-0.4-1-0.9-1H79.6c-0.5,0-0.9,0.4-0.9,1v5.2c0,0.5,0.4,1,0.9,1h0.1
	h0.1h2.6c1.8,0,3.4,1.5,3.4,3.4v3c-2.5-0.6-5.1-1-7.6-1.2C77.7,68.4,77.5,69,77.9,69.2L77.9,69.2z M89.8,66.6v1.8c0,0,0,0,0,0.1v2.3
	c-0.2-0.1-0.4-0.1-0.6-0.2V66c0.2-1.8,1.4-3.3,3-3.8C90.7,63.2,89.8,64.8,89.8,66.6z M96.8,58v3.1h-3.2c-2.2,0-4.1,1.4-4.8,3.3
	c-0.8-2-2.6-3.3-4.8-3.3h-3.4V58H96.8z M87.6,68.4v-1.8c0-1.9-1-3.6-2.5-4.6c1.9,0.5,3.3,2.2,3.4,4.3v0.1v3.9
	c-0.3-0.1-0.5-0.2-0.8-0.2v-1.7H87.6z"/>
<path class="st0" d="M72,83.8c4.7,0,9.3-0.4,13.6-1.2c-2-8.3-7.5-14.3-13.9-14.7v15.5C71.7,83.7,71.8,83.8,72,83.8"/>
<g transform="translate(-.3 15.6)">
	<path class="st0" d="M102.5,86.8c-4.1-2.2-9.4-3.9-15.3-4.9c-0.2,0-0.3,0.1-0.4,0.2c-1.6,5.9-5,10.5-9.3,12.9
		c-0.3,0.2-0.2,0.6,0.2,0.6c2.1-0.2,4.2-0.5,6.3-0.9c-1.9,2.7-5.1,4.4-8.5,4.4h-0.6c-3.6,0-6.9-1.8-8.8-4.8c1.3,0.6,2.7,1.1,4.1,1.2
		c0.3,0,0.5-0.2,0.5-0.5l0,0V81c0-0.3-0.2-0.5-0.5-0.5c-1.9,0-3.8,0.1-5.7,0.2v-1.1c1.9-0.1,3.8-0.2,5.7-0.2c0.3,0,0.5-0.2,0.5-0.5
		v-9c0-0.3-0.2-0.5-0.5-0.5c-1.9,0-3.8-0.1-5.7-0.2v-1.1c1.9,0.1,3.8,0.2,5.8,0.2c0.2,0,0.4-0.2,0.4-0.4l0,0V52.8
		c-2.2,0.1-4.3,0.9-6.2,2.2v-1.3c0.3-0.2,0.6-0.4,0.9-0.5c0.2-0.1,0.1-0.5-0.1-0.4c-0.3,0-0.5,0.1-0.8,0.1l0,0V51
		c0-1.9,1.5-3.4,3.4-3.4h2.7l0,0l0,0c0.5,0,1-0.4,1-0.9v-5.1c0-0.5-0.4-0.9-1-0.9H43.2c-0.5,0-1,0.4-1,0.9v5.1c0,0.5,0.4,0.9,1,0.9
		l0,0l0,0h2.7c1.9,0,3.4,1.5,3.4,3.4v1.3l0,0v3.8c-1.9,0.7-3.7,1.5-5.4,2.5c-1.4,0.8-2.7,1.6-3.9,2.5c-0.3,0.2-0.3,0.7,0.1,0.8
		c2.6,1.4,5.8,2.6,9.3,3.6v1.1c-4.3-1.1-8-2.6-11-4.3l0,0c-4.1,3.5-6.3,7.6-6.3,11.8c0,4.3,2.2,8.4,6.4,11.9
		c0.2,0.1,0.4,0.2,0.6,0.1c2.8-1.6,6.3-2.9,10.2-4v1.1c-3.3,0.9-6.3,2.1-8.8,3.4c-0.2,0.1-0.3,0.4-0.2,0.7c0,0.1,0.1,0.1,0.2,0.2
		c1.1,0.8,2.3,1.5,3.5,2.1c2.1,1.1,4.3,2.1,6.7,2.9c0.1,0,0.2,0,0.3,0c3.3,8,11.2,13.7,20.5,13.7H72c8.5,0,16.1-5.3,18.9-13.2
		c0,0,0,0,0-0.1c2.9-0.9,5.6-2,8-3.4c1.3-0.7,2.5-1.5,3.7-2.3c0.1-0.1,0.2-0.3,0.1-0.4C102.6,86.8,102.6,86.8,102.5,86.8z M62.7,51
		v37.8c0,6.7,5.5,12.1,12.3,12.1h0.6c4.6,0,8.8-2.5,10.9-6.6c0,0,0-0.1,0.1-0.1c0.2,0,0.3-0.1,0.5-0.1c-2.6,5.3-7.9,8.7-14,8.7h-0.3
		c-8.5,0-15.5-6.9-15.5-15.3V52.3v-0.1c0.1-3.2,2.8-5.8,6-5.8h2.2C63.8,47.2,62.7,49,62.7,51L62.7,51z M69.8,42.5v3.1h-6.5
		c-2.9,0-5.5,1.8-6.4,4.5c-1-2.7-3.5-4.5-6.4-4.5h-6.3v-3.1C44.2,42.5,69.8,42.5,69.8,42.5z M71.9,104.4h-0.5
		c-11.1,0-20.2-8.9-20.2-19.9V52.7l0,0V51c0-2-1.2-3.8-2.8-4.6h2.1c3.3,0,6,2.6,6,5.8v0.1V55c0,0,0,0,0,0.1v32.4
		c0,8.9,7.3,16.1,16.2,16.1h0.4c6.5,0,12.3-3.8,14.9-9.7c0.2,0,0.4-0.1,0.6-0.1C85.7,100.1,79.1,104.4,71.9,104.4z"/>
</g>
<path class="st0" d="M104,78.1c-0.2-0.2-0.6-0.2-0.8-0.1c-4.1,2.4-9.5,4.2-15.6,5.4c-0.4,0.1-0.6,0.4-0.6,0.8
	c0.3,1.7,0.5,3.5,0.5,5.4c0,2.1-0.2,4-0.6,5.9c-0.1,0.4,0.2,0.8,0.6,0.8c6,1.1,11.3,2.9,15.3,5.2c0.3,0.1,0.6,0.1,0.8-0.1
	c4-3.5,6.2-7.6,6.2-11.9C109.8,85.4,107.8,81.5,104,78.1 M72.2,94.8c4.6,0,9,0.4,13.2,1.1c0.3,0,0.5-0.1,0.6-0.4
	c0.4-1.8,0.6-3.8,0.6-5.8c0-1.8-0.2-3.6-0.5-5.3c0-0.3-0.3-0.4-0.6-0.4c-4.2,0.7-8.7,1-13.3,1.1c-0.3,0-0.5,0.2-0.5,0.5v8.8
	C71.7,94.6,71.9,94.8,72.2,94.8"/>
</svg>
